# xmcd
#
# Track frame offsets:
#	183
#	67648
#	87953
#	134193
#	161655
#
# Disc length: 2460 seconds
#
# Revision: 2
# Processed by: cddbd v1.5.2PL0 Copyright (c) Steve Scherf et al.
# Submitted via: audiograbber 1.83.01
#
DISCID=3d099a05
DTITLE=Deuter - D
DYEAR=1971
DGENRE=New Age
TTITLE0=Babylon (Andantino-Allegro-Andante-Allegro)
TTITLE1=Der Turm - Fluchtpunkt
TTITLE2=Krishan Eating Fish And Chips
TTITLE3=Atlantis
TTITLE4=Gammastrahlen-Lamm
EXTD=
EXTT0=
EXTT1=
EXTT2=
EXTT3=
EXTT4=
PLAYORDER=
